<svg xmlns="http://www.w3.org/2000/svg" xml:space="preserve" width="50px" height="50px" version="1.1" shape-rendering="geometricPrecision" text-rendering="geometricPrecision" image-rendering="optimizeQuality" fill-rule="evenodd" clip-rule="evenodd"
viewBox="0 0 16.63 16.63">
  <path fill="black" stroke="#2B2A29" stroke-width="0.01" stroke-miterlimit="22.9256" d="M8.32 16.63c4.59,0 8.31,-3.72 8.31,-8.31 0,-4.59 -3.72,-8.31 -8.31,-8.31 -4.59,0 -8.31,3.72 -8.31,8.31 0,4.59 3.72,8.31 8.31,8.31zm0.66 -8.31l1.46 -1.46c0.18,-0.19 0.18,-0.48 0,-0.66 -0.18,-0.19 -0.48,-0.19 -0.66,0l-1.46 1.46 -1.46 -1.46c-0.19,-0.19 -0.48,-0.19 -0.66,0 -0.19,0.18 -0.19,0.47 0,0.66l1.46 1.46 -1.46 1.46c-0.19,0.18 -0.19,0.48 0,0.66 0.18,0.18 0.47,0.18 0.66,0l1.46 -1.46 1.46 1.46c0.18,0.18 0.48,0.18 0.66,0 0.18,-0.18 0.18,-0.48 0,-0.66l-1.46 -1.46zm-0.66 -5.2c-2.87,0 -5.2,2.33 -5.2,5.2 0,2.87 2.33,5.19 5.2,5.19 2.87,0 5.19,-2.32 5.19,-5.19 0,-2.87 -2.32,-5.2 -5.19,-5.2zm0 0.77c2.44,0 4.43,1.98 4.43,4.43 0,2.44 -1.99,4.43 -4.43,4.43 -2.45,0 -4.43,-1.99 -4.43,-4.43 0,-2.45 1.98,-4.43 4.43,-4.43zm2.39 -2.01c0.13,-0.21 0.41,-0.28 0.63,-0.14l2.44 1.52c0.22,0.14 0.28,0.42 0.15,0.63 -0.14,0.22 -0.42,0.28 -0.63,0.15l-2.45 -1.53c-0.21,-0.13 -0.28,-0.41 -0.14,-0.63l0 0zm-4.72 0c0.13,0.22 0.07,0.5 -0.15,0.63l-2.44 1.53c-0.22,0.13 -0.5,0.07 -0.63,-0.15 -0.14,-0.21 -0.07,-0.49 0.14,-0.63l2.45 -1.52c0.21,-0.14 0.49,-0.07 0.63,0.14l0 0z"/> 
</svg>
