<?xml version="1.0" encoding="UTF-8"?>
<!DOCTYPE svg PUBLIC "-//W3C//DTD SVG 1.0//EN" "http://www.w3.org/TR/2001/REC-SVG-20010904/DTD/svg10.dtd">
<svg xmlns="http://www.w3.org/2000/svg" xml:space="preserve" width="50px" height="50px" version="1.0" shape-rendering="geometricPrecision" text-rendering="geometricPrecision" image-rendering="optimizeQuality" fill-rule="evenodd" clip-rule="evenodd"
viewBox="0 0 31 31"
 xmlns:xlink="http://www.w3.org/1999/xlink">
 <g id="Слой_x0020_1">
  <path fill="#1F1B20" stroke="#2B2A29" stroke-width="0" stroke-miterlimit="22.9256" d="M16 0c9,0 15,7 15,15 0,9 -7,15 -15,15 -9,0 -15,-7 -15,-15 0,-9 7,-15 15,-15zm2 17l0 5c0,1 -1,2 -2,2 -1,0 -2,-1 -2,-2l0 -5 -5 0c-1,0 -2,-1 -2,-2 0,-1 1,-2 2,-2l5 0 0 -5c0,-1 1,-2 2,-2 1,0 2,1 2,2l0 5c2,0 3,0 5,0 1,0 2,1 2,2 0,1 -1,2 -2,2l-5 0z"/>
 </g>
</svg>
