<?xml version="1.0" encoding="UTF-8"?>
<!DOCTYPE svg PUBLIC "-//W3C//DTD SVG 1.0//EN" "http://www.w3.org/TR/2001/REC-SVG-20010904/DTD/svg10.dtd">
<!-- Creator: CorelDRAW 2018 (64-Bit) -->
<svg xmlns="http://www.w3.org/2000/svg" xml:space="preserve" width="250px" height="250px" version="1.0" shape-rendering="geometricPrecision" text-rendering="geometricPrecision" image-rendering="optimizeQuality" fill-rule="evenodd" clip-rule="evenodd"
viewBox="0 0 270.7 270.7"
 xmlns:xlink="http://www.w3.org/1999/xlink">
 <g id="Слой_x0020_1">
  <metadata id="CorelCorpID_0Corel-Layer"/>
  <path fill="black" stroke="#2B2A29" stroke-width="0.22" stroke-miterlimit="22.9256" d="M135.34 270.59c74.69,0 135.25,-60.56 135.25,-135.25 0,-74.68 -60.56,-135.23 -135.25,-135.23 -74.68,0 -135.23,60.55 -135.23,135.23 0,74.69 60.55,135.25 135.23,135.25zm10.75 -135.25l23.77 -23.76c2.96,-2.97 2.97,-7.78 0,-10.74 -2.97,-2.97 -7.78,-2.98 -10.75,0l-23.77 23.76 -23.75 -23.76c-2.97,-2.98 -7.79,-2.97 -10.75,0 -2.97,2.96 -2.97,7.77 0,10.74l23.75 23.76 -23.75 23.77c-2.97,2.97 -2.98,7.78 0,10.75 2.96,2.97 7.78,2.97 10.75,0l23.75 -23.77 23.77 23.77c2.97,2.97 7.78,2.97 10.75,0 2.97,-2.97 2.97,-7.78 0,-10.75l-23.77 -23.77zm-10.75 -84.52c-46.67,0 -84.52,37.85 -84.52,84.52 0,46.69 37.85,84.53 84.52,84.53 46.69,0 84.53,-37.84 84.53,-84.53 0,-46.67 -37.84,-84.52 -84.53,-84.52zm0 12.44c39.82,0 72.1,32.27 72.1,72.08 0,39.82 -32.27,72.1 -72.1,72.1 -39.81,0 -72.08,-32.27 -72.08,-72.1 0,-39.81 32.27,-72.08 72.08,-72.08zm38.91 -32.63c2.17,-3.5 6.77,-4.56 10.27,-2.37l39.75 24.84c3.5,2.19 4.56,6.79 2.37,10.27 -2.18,3.5 -6.78,4.56 -10.27,2.38l-39.76 -24.85c-3.49,-2.18 -4.54,-6.78 -2.36,-10.27zm-76.82 0c2.19,3.49 1.13,8.09 -2.36,10.27l-39.76 24.85c-3.49,2.18 -8.09,1.12 -10.27,-2.38 -2.19,-3.48 -1.13,-8.08 2.37,-10.27l39.75 -24.84c3.5,-2.19 8.09,-1.13 10.27,2.37z"/>
 </g>
</svg>
