<svg xmlns="http://www.w3.org/2000/svg" xml:space="preserve" width="40mm" height="32.0304mm" version="1.1" shape-rendering="geometricPrecision" text-rendering="geometricPrecision" image-rendering="optimizeQuality" fill-rule="evenodd" clip-rule="evenodd"
viewBox="0 0 3.6857 2.9513">
  <path fill="#1F1B20" stroke="#2B2A29" stroke-width="0.014" stroke-miterlimit="22.9256" d="M0.3741 1.1085l2.9374 0c0.2019,0 0.3671,0.1652 0.3671,0.3671l0 0c0,0.2019 -0.1652,0.3671 -0.3671,0.3671l-2.9374 0c-0.2019,0 -0.3671,-0.1652 -0.3671,-0.3671l0 -0c0,-0.2019 0.1652,-0.3671 0.3671,-0.3671zm0 -1.1015l2.9374 0c0.2019,0 0.3671,0.1652 0.3671,0.3671l0 0c0,0.2019 -0.1652,0.3671 -0.3671,0.3671l-2.9374 0c-0.2019,0 -0.3671,-0.1652 -0.3671,-0.3671l0 -0c0,-0.2019 0.1652,-0.3671 0.3671,-0.3671zm0 2.203l2.9374 0c0.2019,0 0.3671,0.1652 0.3671,0.3671l0 0c0,0.2019 -0.1652,0.3671 -0.3671,0.3671l-2.9374 0c-0.2019,0 -0.3671,-0.1652 -0.3671,-0.3671l0 -0c0,-0.2019 0.1652,-0.3671 0.3671,-0.3671z"/> 
</svg>
