<!DOCTYPE svg PUBLIC "-//W3C//DTD SVG 1.1//EN" "http://www.w3.org/Graphics/SVG/1.1/DTD/svg11.dtd">
<!-- Uploaded to: SVG Repo, www.svgrepo.com, Transformed by: SVG Repo Mixer Tools -->
<svg width="800px" height="800px" viewBox="0 0 16 16" xmlns="http://www.w3.org/2000/svg" fill="#000000" class="bi bi-skip-forward-circle-fill">
<g id="SVGRepo_bgCarrier" stroke-width="0"/>
<g id="SVGRepo_tracerCarrier" stroke-linecap="round" stroke-linejoin="round"/>
<g id="SVGRepo_iconCarrier"> <path d="M16 8A8 8 0 1 1 0 8a8 8 0 0 1 16 0zM4.79 5.093A.5.5 0 0 0 4 5.5v5a.5.5 0 0 0 .79.407L7.5 8.972V10.5a.5.5 0 0 0 .79.407L11 8.972V10.5a.5.5 0 0 0 1 0v-5a.5.5 0 0 0-1 0v1.528L8.29 5.093a.5.5 0 0 0-.79.407v1.528L4.79 5.093z"/> </g>
</svg>