<?xml version="1.0" encoding="UTF-8"?>
<!DOCTYPE svg PUBLIC "-//W3C//DTD SVG 1.0//EN" "http://www.w3.org/TR/2001/REC-SVG-20010904/DTD/svg10.dtd">
<!-- Creator: CorelDRAW 2018 (64-Bit) -->
<svg xmlns="http://www.w3.org/2000/svg" xml:space="preserve" width="300px" height="300px" version="1.0" shape-rendering="geometricPrecision" text-rendering="geometricPrecision" image-rendering="optimizeQuality" fill-rule="evenodd" clip-rule="evenodd"
viewBox="0 0 300 300"
 xmlns:xlink="http://www.w3.org/1999/xlink">
 <g id="Слой_x0020_1">
  <metadata id="CorelCorpID_0Corel-Layer"/>
  <g id="SVGRepo_iconCarrier">
   <path fill="black" d="M300 150c0,-82.84 -67.16,-150 -150,-150 -82.84,0 -150,67.16 -150,150 0,82.84 67.16,150 150,150 82.84,0 150,-67.16 150,-150zm-181.73 53.47l0 -106.94c0,-6.36 5.17,-11.53 11.54,-11.53 2.69,0 5.3,0.95 7.38,2.67l64.24 53.46c2.64,2.19 4.16,5.44 4.16,8.87 0,3.43 -1.52,6.68 -4.16,8.87l-64.24 53.46c-2.08,1.72 -4.69,2.67 -7.38,2.67 -6.37,0 -11.54,-5.17 -11.54,-11.53l0 0z"/>
  </g>
 </g>
</svg>
