<?xml version="1.0" encoding="UTF-8"?>
<!DOCTYPE svg PUBLIC "-//W3C//DTD SVG 1.0//EN" "http://www.w3.org/TR/2001/REC-SVG-20010904/DTD/svg10.dtd">
<!-- Creator: CorelDRAW 2018 (64-Bit) -->
<svg xmlns="http://www.w3.org/2000/svg" xml:space="preserve" width="300px" height="300px" version="1.0" shape-rendering="geometricPrecision" text-rendering="geometricPrecision" image-rendering="optimizeQuality" fill-rule="evenodd" clip-rule="evenodd"
viewBox="0 0 300 300"
 xmlns:xlink="http://www.w3.org/1999/xlink">
 <g id="Слой_x0020_1">
  <metadata id="CorelCorpID_0Corel-Layer"/>
  <g id="_2044365133728">
   <g>
    <path fill="black" d="M150 0c-82.71,0 -150,67.29 -150,150 0,82.71 67.29,150 150,150 82.71,0 150,-67.29 150,-150 0,-82.71 -67.29,-150 -150,-150zm-13.64 68.18c0,-7.53 6.11,-13.63 13.64,-13.63 7.53,0 13.64,6.1 13.64,13.63l0 58.44c0,7.53 -6.11,13.64 -13.64,13.64 -7.53,0 -13.64,-6.11 -13.64,-13.64l0 -58.44zm13.64 177.27c-47.8,0 -86.69,-38.88 -86.69,-86.68 0,-21.31 7.8,-41.79 21.97,-57.67 5.01,-5.63 13.63,-6.12 19.25,-1.11 5.62,5.01 6.11,13.63 1.1,19.25 -9.7,10.89 -15.05,24.93 -15.05,39.53 0,32.76 26.66,59.41 59.42,59.41 32.76,0 59.42,-26.65 59.42,-59.41 -0.01,-14.6 -5.35,-28.64 -15.05,-39.52 -5.02,-5.63 -4.52,-14.25 1.1,-19.26 5.62,-5.01 14.24,-4.52 19.26,1.11 14.16,15.88 21.96,36.36 21.96,57.67 0,47.8 -38.89,86.68 -86.69,86.68z"/>
   </g>
  </g>
 </g>
</svg>
