<svg xmlns="http://www.w3.org/2000/svg" xml:space="preserve" width="50px" height="50px" version="1.1" shape-rendering="geometricPrecision" text-rendering="geometricPrecision" image-rendering="optimizeQuality" fill-rule="evenodd" clip-rule="evenodd" viewBox="0 0 21.35 21.35">
    <path fill="black" d="M10.68 21.35c5.89,0 10.67,-4.78 10.67,-10.67 0,-5.9 -4.78,-10.68 -10.67,-10.68 -5.9,0 -10.68,4.78 -10.68,10.68 0,5.89 4.78,10.67 10.68,10.67zm1.53 -15.52c-0.36,-0.26 -0.86,-0.17 -1.12,0.19 -0.25,0.36 -0.17,0.86 0.19,1.11l3.44 2.46c0.74,0.53 0.74,1.64 0,2.17l-3.44 2.46c-0.36,0.26 -0.44,0.76 -0.19,1.12 0.26,0.36 0.76,0.44 1.12,0.18l3.44 -2.45c1.64,-1.17 1.64,-3.61 0,-4.78l-3.44 -2.46 0 0zm-6.34 8.19l0 -6.69c0,-0.85 0.95,-1.36 1.66,-0.88l5.02 3.34c0.63,0.42 0.63,1.35 0,1.78l-5.02 3.34c-0.71,0.47 -1.66,-0.04 -1.66,-0.89z"/>
</svg>
