<svg xmlns="http://www.w3.org/2000/svg" xml:space="preserve" width="50px" height="50px" version="1.1" shape-rendering="geometricPrecision" text-rendering="geometricPrecision" image-rendering="optimizeQuality" fill-rule="evenodd" clip-rule="evenodd" viewBox="0 0 33.84 33.84"> 
    <path fill="black" d="M16.92 0c-9.34,0 -16.92,7.58 -16.92,16.92 0,9.35 7.58,16.92 16.92,16.92 9.35,0 16.92,-7.57 16.92,-16.92 0,-9.34 -7.57,-16.92 -16.92,-16.92zm-2.43 24.6c0.57,0.41 1.36,0.28 1.77,-0.29 0.41,-0.57 0.28,-1.37 -0.29,-1.77l-5.46 -3.9c-1.18,-0.84 -1.18,-2.6 0,-3.44l5.46 -3.89c0.57,-0.41 0.7,-1.2 0.29,-1.77 -0.41,-0.57 -1.2,-0.71 -1.77,-0.3l-5.45 3.89c-2.6,1.86 -2.6,5.72 0,7.58l5.45 3.89 0 0zm10.05 -12.98l0 10.6c0,1.35 -1.51,2.16 -2.64,1.41l-7.94 -5.3c-1.01,-0.67 -1.01,-2.15 0,-2.82l7.94 -5.3c1.13,-0.75 2.64,0.06 2.64,1.41z"/>   
</svg>
