<svg xmlns="http://www.w3.org/2000/svg" xml:space="preserve" width="50px" height="50px" version="1.1" shape-rendering="geometricPrecision" text-rendering="geometricPrecision" image-rendering="optimizeQuality" fill-rule="evenodd" clip-rule="evenodd" viewBox="0 0 390.21 390.21">
    <path fill="black" d="M390.21 195.11c0,-107.76 -87.35,-195.11 -195.1,-195.11 -107.76,0 -195.11,87.35 -195.11,195.11 0,107.75 87.35,195.1 195.11,195.1 107.75,0 195.1,-87.35 195.1,-195.1zm-236.38 69.54l0 -139.09c0,-8.28 6.73,-15 15.01,-15 3.5,0 6.9,1.24 9.6,3.47l83.56 69.54c3.43,2.85 5.41,7.07 5.41,11.54 0,4.46 -1.98,8.68 -5.41,11.53l-83.56 69.54c-2.7,2.24 -6.1,3.47 -9.6,3.47 -8.28,0 -15.01,-6.72 -15.01,-15l0 0 0 0z"/>
</svg>
