<?xml version="1.0" encoding="UTF-8"?>
<!DOCTYPE svg PUBLIC "-//W3C//DTD SVG 1.0//EN" "http://www.w3.org/TR/2001/REC-SVG-20010904/DTD/svg10.dtd">
<!-- Creator: CorelDRAW 2018 (64-Bit) -->
<svg xmlns="http://www.w3.org/2000/svg" xml:space="preserve" width="300px" height="300px" version="1.0" shape-rendering="geometricPrecision" text-rendering="geometricPrecision" image-rendering="optimizeQuality" fill-rule="evenodd" clip-rule="evenodd"
viewBox="0 0 300 300"
 xmlns:xlink="http://www.w3.org/1999/xlink">
 <g id="Слой_x0020_1">
  <metadata id="CorelCorpID_0Corel-Layer"/>
  <g id="SVGRepo_iconCarrier">
   <path fill="black" d="M150 0c-82.84,0 -150,67.16 -150,150 0,82.84 67.16,150 150,150 82.84,0 150,-67.16 150,-150 0,-82.84 -67.16,-150 -150,-150zm-21.54 218.08c5.06,3.62 12.08,2.44 15.69,-2.61 3.61,-5.06 2.44,-12.08 -2.61,-15.69l-48.33 -34.52c-10.46,-7.48 -10.46,-23.04 0,-30.52l48.33 -34.51c5.05,-3.61 6.22,-10.64 2.61,-15.7 -3.61,-5.05 -10.63,-6.22 -15.69,-2.61l-48.32 34.51c-23.04,16.46 -23.04,50.69 0,67.14l48.32 34.51zm89.04 -115.06l0 93.95c0,11.98 -13.35,19.12 -23.32,12.48l-70.46 -46.97c-8.91,-5.94 -8.91,-19.03 0,-24.97l70.46 -46.97c9.97,-6.64 23.32,0.5 23.32,12.48z"/>
  </g>
 </g>
</svg>
