<svg xmlns="http://www.w3.org/2000/svg" xml:space="preserve" width="50px" height="50px" version="1.1" shape-rendering="geometricPrecision" text-rendering="geometricPrecision" image-rendering="optimizeQuality" fill-rule="evenodd" clip-rule="evenodd" viewBox="0 0 26.86 26.86">
    <path fill="black" d="M26.86 13.43c0,7.42 -6.01,13.43 -13.43,13.43 -7.42,0 -13.43,-6.01 -13.43,-13.43 0,-7.42 6.01,-13.43 13.43,-13.43 7.42,0 13.43,6.01 13.43,13.43zm-22.21 -1.23c0.5,-4.41 4.25,-7.84 8.79,-7.84 2.88,0 5.43,1.37 7.04,3.49 0.34,0.44 0.26,1.07 -0.19,1.41 -0.44,0.34 -1.07,0.25 -1.41,-0.19 -1.25,-1.64 -3.22,-2.69 -5.44,-2.69 -3.43,0 -6.27,2.53 -6.76,5.82l0.49 0c0.4,0 0.77,0.24 0.93,0.62 0.15,0.38 0.07,0.81 -0.22,1.1l-1.57 1.57c-0.39,0.39 -1.03,0.39 -1.42,0l-1.57 -1.57c-0.29,-0.29 -0.38,-0.72 -0.22,-1.1 0.15,-0.38 0.52,-0.62 0.93,-0.62l0.62 0zm17.32 -0.83c-0.39,-0.39 -1.03,-0.39 -1.42,0l-1.57 1.57c-0.29,0.29 -0.37,0.72 -0.22,1.1 0.16,0.38 0.53,0.62 0.93,0.62l0.49 0c-0.49,3.29 -3.33,5.82 -6.76,5.82 -2.21,0 -4.17,-1.04 -5.43,-2.67 -0.33,-0.44 -0.97,-0.52 -1.41,-0.18 -0.44,0.34 -0.52,0.97 -0.18,1.41 1.62,2.1 4.16,3.46 7.02,3.46 4.54,0 8.29,-3.43 8.79,-7.84l0.62 0c0.41,0 0.78,-0.24 0.93,-0.62 0.16,-0.38 0.07,-0.81 -0.22,-1.1l-1.57 -1.57 0 0z"/>
</svg>
