<svg xmlns="http://www.w3.org/2000/svg" xml:space="preserve" width="50px" height="50px" version="1.1" shape-rendering="geometricPrecision" text-rendering="geometricPrecision" image-rendering="optimizeQuality" fill-rule="evenodd" clip-rule="evenodd" viewBox="0 0 14.27 14.27">
    <path fill="black" d="M0 7.13c0,3.94 3.19,7.14 7.13,7.14 3.94,0 7.14,-3.2 7.14,-7.14 0,-3.94 -3.2,-7.13 -7.14,-7.13 -3.94,0 -7.13,3.19 -7.13,7.13zm8.64 -2.54l0 5.09c0,0.3 -0.24,0.55 -0.55,0.55 -0.12,0 -0.25,-0.05 -0.35,-0.13l-3.05 -2.54c-0.13,-0.11 -0.2,-0.26 -0.2,-0.43 0,-0.16 0.07,-0.31 0.2,-0.42l3.05 -2.54c0.1,-0.08 0.23,-0.13 0.35,-0.13 0.31,0 0.55,0.25 0.55,0.55l0 0 0 0z"/>
</svg>
