<?xml version="1.0" encoding="UTF-8"?>
<!DOCTYPE svg PUBLIC "-//W3C//DTD SVG 1.0//EN" "http://www.w3.org/TR/2001/REC-SVG-20010904/DTD/svg10.dtd">
<!-- Creator: CorelDRAW 2018 (64-Bit) -->
<svg xmlns="http://www.w3.org/2000/svg" xml:space="preserve" width="300px" height="300px" version="1.0" shape-rendering="geometricPrecision" text-rendering="geometricPrecision" image-rendering="optimizeQuality" fill-rule="evenodd" clip-rule="evenodd"
viewBox="0 0 300 300"
 xmlns:xlink="http://www.w3.org/1999/xlink">
 <g id="Слой_x0020_1">
  <metadata id="CorelCorpID_0Corel-Layer"/>
  <g id="SVGRepo_iconCarrier">
   <path fill="black" d="M300 150c0,82.84 -67.16,150 -150,150 -82.84,0 -150,-67.16 -150,-150 0,-82.84 67.16,-150 150,-150 82.84,0 150,67.16 150,150zm-248.09 -13.75c5.59,-49.25 47.45,-87.5 98.23,-87.5 32.08,0 60.59,15.27 78.64,38.89 3.77,4.93 2.83,11.99 -2.11,15.77 -4.93,3.77 -11.99,2.82 -15.77,-2.11 -13.97,-18.28 -35.98,-30.05 -60.76,-30.05 -38.36,0 -70.09,28.23 -75.54,65l5.45 0c4.55,0 8.65,2.74 10.39,6.95 1.74,4.2 0.78,9.04 -2.44,12.26l-17.53 17.5c-4.39,4.39 -11.5,4.39 -15.9,0l-17.52 -17.5c-3.22,-3.22 -4.19,-8.06 -2.45,-12.26 1.75,-4.21 5.85,-6.95 10.4,-6.95l6.91 0zm193.52 -9.21c-4.4,-4.39 -11.51,-4.39 -15.9,0l-17.53 17.5c-3.22,3.22 -4.18,8.06 -2.44,12.26 1.74,4.21 5.84,6.95 10.39,6.95l5.45 0c-5.45,36.77 -37.18,65 -75.54,65 -24.66,0 -46.59,-11.66 -60.57,-29.79 -3.79,-4.92 -10.85,-5.84 -15.77,-2.04 -4.93,3.79 -5.84,10.85 -2.05,15.77 18.06,23.43 46.46,38.56 78.39,38.56 50.78,0 92.64,-38.25 98.23,-87.5l6.91 0c4.55,0 8.66,-2.74 10.4,-6.95 1.74,-4.2 0.77,-9.04 -2.45,-12.26l-17.52 -17.5z"/>
  </g>
 </g>
</svg>
