<svg xmlns="http://www.w3.org/2000/svg" xml:space="preserve" width="50px" height="50px" version="1.1" shape-rendering="geometricPrecision" text-rendering="geometricPrecision" image-rendering="optimizeQuality" fill-rule="evenodd" clip-rule="evenodd" viewBox="0 0 16.45 16.45">
  <path fill="black" d="M8.22 13.46c-2.62,0 -4.75,-2.14 -4.75,-4.76 0,-1.16 0.43,-2.29 1.21,-3.16 0.27,-0.31 0.74,-0.33 1.05,-0.06 0.31,0.28 0.34,0.75 0.06,1.06 -0.53,0.59 -0.82,1.36 -0.82,2.16 0,1.8 1.46,3.26 3.25,3.26 1.8,0 3.26,-1.46 3.26,-3.26 0,-0.8 -0.29,-1.57 -0.82,-2.16 -0.28,-0.31 -0.25,-0.78 0.06,-1.06 0.3,-0.27 0.78,-0.25 1.05,0.06 0.78,0.87 1.21,2 1.21,3.16 0,2.62 -2.14,4.76 -4.76,4.76l0 0zm-0.74 -9.72c0,-0.42 0.33,-0.75 0.74,-0.75 0.42,0 0.75,0.33 0.75,0.75l0 3.2c0,0.41 -0.33,0.75 -0.75,0.75 -0.41,0 -0.74,-0.34 -0.74,-0.75l0 -3.2zm0.74 -3.74c-4.53,0 -8.22,3.69 -8.22,8.22 0,4.54 3.69,8.23 8.22,8.23 4.54,0 8.23,-3.69 8.23,-8.23 0,-4.53 -3.69,-8.22 -8.23,-8.22z"/>
</svg>
