<svg xmlns="http://www.w3.org/2000/svg" xml:space="preserve" width="50px" height="50px" version="1.1" shape-rendering="geometricPrecision" text-rendering="geometricPrecision" image-rendering="optimizeQuality" fill-rule="evenodd" clip-rule="evenodd" viewBox="0 0 15.57 15.57">
  <path fill="black" d="M7.79 15.57c4.3,0 7.78,-3.48 7.78,-7.78 0,-4.3 -3.48,-7.79 -7.78,-7.79 -4.3,0 -7.79,3.49 -7.79,7.79 0,4.3 3.49,7.78 7.79,7.78zm-2.66 -10.44c-0.46,0.45 -0.46,1.19 -0.46,2.66 0,1.46 0,2.2 0.46,2.65 0.45,0.46 1.19,0.46 2.66,0.46 1.46,0 2.2,0 2.65,-0.46 0.46,-0.45 0.46,-1.19 0.46,-2.65 0,-1.47 0,-2.21 -0.46,-2.66 -0.45,-0.46 -1.19,-0.46 -2.65,-0.46 -1.47,0 -2.21,0 -2.66,0.46z"/>
</svg>
