<svg xmlns="http://www.w3.org/2000/svg" xml:space="preserve" width="50px" height="50px" version="1.1" shape-rendering="geometricPrecision" text-rendering="geometricPrecision" image-rendering="optimizeQuality" fill-rule="evenodd" clip-rule="evenodd" viewBox="0 0 16.15 16.15">
  <path fill="black" stroke="black" stroke-width="0.01" stroke-miterlimit="22.9256" d="M8.07 16.14c4.46,0 8.07,-3.61 8.07,-8.07 0,-4.45 -3.61,-8.07 -8.07,-8.07 -4.45,0 -8.07,3.62 -8.07,8.07 0,4.46 3.62,8.07 8.07,8.07zm-2.89 -4.86l1.19 0c0.3,0 0.55,-0.25 0.55,-0.56l0 -5.3c0,-0.3 -0.25,-0.55 -0.55,-0.55l-1.19 0c-0.3,0 -0.55,0.25 -0.55,0.55l0 5.3c0,0.31 0.25,0.56 0.55,0.56zm4.6 0l1.18 0c0.31,0 0.56,-0.25 0.56,-0.56l0 -5.3c0,-0.3 -0.25,-0.55 -0.56,-0.55l-1.18 0c-0.3,0 -0.55,0.25 -0.55,0.55l0 5.3c0,0.31 0.25,0.56 0.55,0.56z"/>
</svg>
