<svg xmlns="http://www.w3.org/2000/svg" xml:space="preserve" width="50px" height="50px" version="1.1" shape-rendering="geometricPrecision" text-rendering="geometricPrecision" image-rendering="optimizeQuality" fill-rule="evenodd" clip-rule="evenodd" viewBox="0 0 204.84 204.84">
    <path fill="black" d="M102.42 204.84c56.56,0 102.42,-45.86 102.42,-102.42 0,-56.56 -45.86,-102.42 -102.42,-102.42 -56.56,0 -102.42,45.86 -102.42,102.42 0,56.56 45.86,102.42 102.42,102.42zm-36.51 -124.09l73.02 0c4.34,0.01 7.87,3.53 7.87,7.88 0,1.84 -0.65,3.63 -1.82,5.04l-36.5 43.87c-1.5,1.8 -3.72,2.84 -6.06,2.84 -2.34,0 -4.56,-1.04 -6.06,-2.84l-36.5 -43.87c-1.17,-1.41 -1.82,-3.2 -1.82,-5.04 0,-4.35 3.52,-7.87 7.87,-7.88l0 0z"/>
</svg>
